<?xml version="1.0" encoding="UTF-8" standalone="no" ?>
<!DOCTYPE svg PUBLIC "-//W3C//DTD SVG 1.1//EN" "http://www.w3.org/Graphics/SVG/1.1/DTD/svg11.dtd">
<svg xmlns="http://www.w3.org/2000/svg" xmlns:xlink="http://www.w3.org/1999/xlink" version="1.1" width="500" height="500" viewBox="0 0 500 500" xml:space="preserve">
<desc>Created with Fabric.js 4.6.0</desc>
<defs>
</defs>
<g transform="matrix(1 0 0 1 18.64 286.47)" id="fX2Eitqx7iGF7gHKbJRxS"  >
<path style="stroke: rgb(0,0,0); stroke-width: 1; stroke-dasharray: none; stroke-linecap: butt; stroke-dashoffset: 0; stroke-linejoin: miter; stroke-miterlimit: 4; fill: rgb(255,255,255); fill-opacity: 0; fill-rule: nonzero; opacity: 1;" vector-effect="non-scaling-stroke"  transform=" translate(0, 0)" d="M 0 0" stroke-linecap="round" />
</g>
<g transform="matrix(0.94 0 0 0.94 255.23 254.61)" id="oDk6iXvKf_f7HeJsd6VEB"  >
<path style="stroke: rgb(252,230,148); stroke-width: 2; stroke-dasharray: none; stroke-linecap: butt; stroke-dashoffset: 0; stroke-linejoin: miter; stroke-miterlimit: 4; fill: none; fill-rule: nonzero; opacity: 1;" vector-effect="non-scaling-stroke"  transform=" translate(0, 0)" d="M 0 -174.23014 C 96.17504 -174.23014 174.23014 -96.17504000000001 174.23014 0 C 174.23014 96.17504 96.17504000000001 174.23014 0 174.23014 C -96.17504 174.23014 -174.23014 96.17504000000001 -174.23014 0 C -174.23014 -96.17504 -96.17504000000001 -174.23014 0 -174.23014 z" stroke-linecap="round" />
</g>
<g transform="matrix(1 0 0 1 76.18 272.66)" id="T60H69GMXxra2vW0vZLOz"  >
<path style="stroke: rgb(0,0,0); stroke-width: 1; stroke-dasharray: none; stroke-linecap: butt; stroke-dashoffset: 0; stroke-linejoin: miter; stroke-miterlimit: 4; fill: rgb(255,255,255); fill-opacity: 0; fill-rule: nonzero; opacity: 1;" vector-effect="non-scaling-stroke"  transform=" translate(0, 0)" d="M 0 0" stroke-linecap="round" />
</g>
<g transform="matrix(1.12 0 0 1 260.66 255.43)" id="KxCLWmP3yHfOUjz8VlvT3"  >
<path style="stroke: rgb(252,230,148); stroke-width: 7; stroke-dasharray: none; stroke-linecap: butt; stroke-dashoffset: 0; stroke-linejoin: miter; stroke-miterlimit: 4; fill: rgb(255,255,255); fill-opacity: 0; fill-rule: nonzero; opacity: 1;" vector-effect="non-scaling-stroke"  transform=" translate(0, 0)" d="M -68.83874 69.28687 L -1.1037299999999988 -69.28687 L 68.83873 69.28687" stroke-linecap="round" />
</g>
<g transform="matrix(1 0 0 1 354.4 262.67)" id="ix8rET4VbDNiZsDq0713D"  >
<path style="stroke: rgb(252,230,148); stroke-width: 7; stroke-dasharray: none; stroke-linecap: butt; stroke-dashoffset: 0; stroke-linejoin: miter; stroke-miterlimit: 4; fill: rgb(255,255,255); fill-opacity: 0; fill-rule: nonzero; opacity: 1;" vector-effect="non-scaling-stroke"  transform=" translate(0, 0)" d="M -52.14384 1.37075 L -8.297809999999998 -54.54497 L 52.143840000000004 54.54498" stroke-linecap="round" />
</g>
<g transform="matrix(1 0 0 1 160.8 250.67)" id="P6ynXHx4M9MQUeaCtJ3Mf"  >
<path style="stroke: rgb(252,230,148); stroke-width: 7; stroke-dasharray: none; stroke-linecap: butt; stroke-dashoffset: 0; stroke-linejoin: miter; stroke-miterlimit: 4; fill: rgb(255,255,255); fill-opacity: 0; fill-rule: nonzero; opacity: 1;" vector-effect="non-scaling-stroke"  transform=" translate(0, 0)" d="M 60.12277 0 L 19.604130000000005 -55.04498 L -60.122769999999996 55.04497" stroke-linecap="round" />
</g>
</svg>